<svg version="1.0" preserveAspectRatio="xMidYMid meet" viewBox="98.86206896551725 150.659998698 1298.1724137931035 498.959995688" zoomAndPan="magnify" xmlns:xlink="http://www.w3.org/1999/xlink" xmlns="http://www.w3.org/2000/svg" style="max-height: 500px" width="150" height="80">
  <defs>
    <g/>
    <clipPath id="ef02d6385a">
      <path clip-rule="nonzero" d="M 720 39.242188 L 1397.785156 39.242188 L 1397.785156 770 L 720 770 Z M 720 39.242188"/>
    </clipPath>
    <clipPath id="f441f07def">
      <path clip-rule="nonzero" d="M 36.261719 39.242188 L 720 39.242188 L 720 770.757812 L 36.261719 770.757812 Z M 36.261719 39.242188"/>
    </clipPath>
  </defs>
  <g clip-path="url(#ef02d6385a)">
    <path fill-rule="nonzero" fill-opacity="1" d="M 720 150 L 1397.785156 150 L 1397.785156 650 L 720 650 Z M 720 150" fill="#ffc97a" stroke="5px"/>
  </g>
  <g clip-path="url(#f441f07def)">
    <path fill-rule="nonzero" fill-opacity="1" d="M 100 150 L 720 150 L 720 650 L 100 650 Z M 100 150" fill="#ff8389" stroke="5px"/>
  </g>
  <g fill-opacity="1" fill="#ffc97a">
    <g transform="translate(162.766623, 410)">
      <g>
        <path d="M 73.15625 -113.0625 L 62.734375 -79.359375 L 97.546875 -79.359375 L 87.125 -113.0625 C 86.53125 -114.394531 85.898438 -115.351562 85.234375 -115.9375 C 84.566406 -116.53125 83.789062 -116.828125 82.90625 -116.828125 L 77.375 -116.828125 C 76.476562 -116.828125 75.695312 -116.53125 75.03125 -115.9375 C 74.375 -115.351562 73.75 -114.394531 73.15625 -113.0625 Z M 60.515625 -7.984375 C 60.515625 -5.171875 59.882812 -3.132812 58.625 -1.875 C 57.375 -0.625 55.347656 0 52.546875 0 L 19.953125 0 C 17.140625 0 15.101562 -0.625 13.84375 -1.875 C 12.59375 -3.132812 11.96875 -5.171875 11.96875 -7.984375 L 11.96875 -66.5 C 11.96875 -70.9375 12.671875 -76.035156 14.078125 -81.796875 C 15.484375 -87.566406 17.660156 -94.289062 20.609375 -101.96875 L 39.90625 -152.296875 C 40.789062 -154.804688 42.15625 -156.648438 44 -157.828125 C 45.851562 -159.015625 48.253906 -159.609375 51.203125 -159.609375 L 110.84375 -159.609375 C 113.65625 -159.609375 115.984375 -159.015625 117.828125 -157.828125 C 119.671875 -156.648438 121.035156 -154.804688 121.921875 -152.296875 L 141.21875 -101.96875 C 144.175781 -94.289062 146.351562 -87.566406 147.75 -81.796875 C 149.15625 -76.035156 149.859375 -70.9375 149.859375 -66.5 L 149.859375 -7.984375 C 149.859375 -5.171875 149.226562 -3.132812 147.96875 -1.875 C 146.71875 -0.625 144.6875 0 141.875 0 L 108.40625 0 C 105.445312 0 103.265625 -0.625 101.859375 -1.875 C 100.460938 -3.132812 99.765625 -5.171875 99.765625 -7.984375 L 99.765625 -39.015625 L 60.515625 -39.015625 Z M 60.515625 -7.984375"/>
      </g>
    </g>
  </g>
  <g fill-opacity="1" fill="#ffc97a">
    <g transform="translate(324.601877, 410)">
      <g>
        <path d="M 19.734375 0 C 16.921875 0 14.882812 -0.625 13.625 -1.875 C 12.375 -3.132812 11.75 -5.171875 11.75 -7.984375 L 11.75 -34.359375 C 11.75 -37.171875 12.375 -39.203125 13.625 -40.453125 C 14.882812 -41.710938 16.921875 -42.34375 19.734375 -42.34375 L 41.671875 -42.34375 L 41.671875 -116.828125 L 19.734375 -116.828125 C 16.921875 -116.828125 14.882812 -117.453125 13.625 -118.703125 C 12.375 -119.960938 11.75 -122 11.75 -124.8125 L 11.75 -151.640625 C 11.75 -154.441406 12.375 -156.46875 13.625 -157.71875 C 14.882812 -158.976562 16.921875 -159.609375 19.734375 -159.609375 L 114.171875 -159.609375 C 116.972656 -159.609375 119.003906 -158.976562 120.265625 -157.71875 C 121.523438 -156.46875 122.15625 -154.441406 122.15625 -151.640625 L 122.15625 -124.8125 C 122.15625 -122 121.523438 -119.960938 120.265625 -118.703125 C 119.003906 -117.453125 116.972656 -116.828125 114.171875 -116.828125 L 92.671875 -116.828125 L 92.671875 -42.34375 L 114.171875 -42.34375 C 116.972656 -42.34375 119.003906 -41.710938 120.265625 -40.453125 C 121.523438 -39.203125 122.15625 -37.171875 122.15625 -34.359375 L 122.15625 -7.984375 C 122.15625 -5.171875 121.523438 -3.132812 120.265625 -1.875 C 119.003906 -0.625 116.972656 0 114.171875 0 Z M 19.734375 0"/>
      </g>
    </g>
  </g>
  <g fill-opacity="1" fill="#ffc97a">
    <g transform="translate(458.725608, 410)">
      <g/>
    </g>
  </g>
  <g fill-opacity="1" fill="#ffc97a">
    <g transform="translate(508.606327, 410)">
      <g>
        <path d="M 90.671875 0 L 54.75 0 C 51.945312 0 49.914062 -0.625 48.65625 -1.875 C 47.40625 -3.132812 46.78125 -5.171875 46.78125 -7.984375 L 46.78125 -116.828125 L 14.1875 -116.828125 C 11.375 -116.828125 9.335938 -117.453125 8.078125 -118.703125 C 6.828125 -119.960938 6.203125 -122 6.203125 -124.8125 L 6.203125 -151.640625 C 6.203125 -154.441406 6.828125 -156.46875 8.078125 -157.71875 C 9.335938 -158.976562 11.375 -159.609375 14.1875 -159.609375 L 131.234375 -159.609375 C 134.046875 -159.609375 136.078125 -158.976562 137.328125 -157.71875 C 138.585938 -156.46875 139.21875 -154.441406 139.21875 -151.640625 L 139.21875 -124.8125 C 139.21875 -122 138.585938 -119.960938 137.328125 -118.703125 C 136.078125 -117.453125 134.046875 -116.828125 131.234375 -116.828125 L 98.65625 -116.828125 L 98.65625 -7.984375 C 98.65625 -5.171875 98.023438 -3.132812 96.765625 -1.875 C 95.503906 -0.625 93.472656 0 90.671875 0 Z M 90.671875 0"/>
      </g>
    </g>
  </g>
  <g fill-opacity="1" fill="#ffc97a">
    <g transform="translate(654.036375, 410)">
      <g>
        <path d="M 65.390625 -119.71875 L 65.390625 -91.328125 L 82.03125 -91.328125 C 85.863281 -91.328125 88.445312 -92.328125 89.78125 -94.328125 C 91.113281 -96.328125 91.78125 -98.800781 91.78125 -101.75 L 91.78125 -109.296875 C 91.78125 -112.242188 91.113281 -114.71875 89.78125 -116.71875 C 88.445312 -118.71875 85.863281 -119.71875 82.03125 -119.71875 Z M 57.421875 0 L 23.28125 0 C 20.46875 0 18.429688 -0.625 17.171875 -1.875 C 15.921875 -3.132812 15.296875 -5.171875 15.296875 -7.984375 L 15.296875 -151.640625 C 15.296875 -154.441406 15.921875 -156.46875 17.171875 -157.71875 C 18.429688 -158.976562 20.46875 -159.609375 23.28125 -159.609375 L 97.09375 -159.609375 C 113.644531 -159.609375 125.0625 -156.171875 131.34375 -149.296875 C 137.625 -142.429688 140.765625 -133.53125 140.765625 -122.59375 L 140.765625 -112.390625 C 140.765625 -106.179688 139.84375 -100.894531 138 -96.53125 C 136.15625 -92.175781 132.941406 -89.039062 128.359375 -87.125 C 136.335938 -86.238281 142.800781 -82.984375 147.75 -77.359375 C 152.707031 -71.742188 155.1875 -64.285156 155.1875 -54.984375 L 155.1875 -7.984375 C 155.1875 -5.171875 154.554688 -3.132812 153.296875 -1.875 C 152.035156 -0.625 150.003906 0 147.203125 0 L 112.84375 0 C 110.03125 0 107.992188 -0.625 106.734375 -1.875 C 105.484375 -3.132812 104.859375 -5.171875 104.859375 -7.984375 L 104.859375 -41.90625 C 104.859375 -45.15625 104.226562 -47.554688 102.96875 -49.109375 C 101.71875 -50.660156 99.539062 -51.4375 96.4375 -51.4375 L 65.390625 -51.4375 L 65.390625 -7.984375 C 65.390625 -5.171875 64.757812 -3.132812 63.5 -1.875 C 62.25 -0.625 60.222656 0 57.421875 0 Z M 57.421875 0"/>
      </g>
    </g>
  </g>
  <g fill-opacity="1" fill="#ffc97a">
    <g transform="translate(645.465764, 420)">
      <g>
        <path d="M 75.421875 -138.078125 L 75.421875 -105.34375 L 94.609375 -105.34375 C 99.035156 -105.34375 102.015625 -106.492188 103.546875 -108.796875 C 105.085938 -111.097656 105.859375 -113.953125 105.859375 -117.359375 L 105.859375 -126.046875 C 105.859375 -129.460938 105.085938 -132.320312 103.546875 -134.625 C 102.015625 -136.925781 99.035156 -138.078125 94.609375 -138.078125 Z M 66.21875 0 L 26.84375 0 C 23.601562 0 21.257812 -0.722656 19.8125 -2.171875 C 18.363281 -3.617188 17.640625 -5.960938 17.640625 -9.203125 L 17.640625 -174.890625 C 17.640625 -178.128906 18.363281 -180.472656 19.8125 -181.921875 C 21.257812 -183.367188 23.601562 -184.09375 26.84375 -184.09375 L 111.984375 -184.09375 C 131.078125 -184.09375 144.242188 -180.128906 151.484375 -172.203125 C 158.734375 -164.273438 162.359375 -154.003906 162.359375 -141.390625 L 162.359375 -129.640625 C 162.359375 -122.472656 161.289062 -116.375 159.15625 -111.34375 C 157.03125 -106.320312 153.328125 -102.703125 148.046875 -100.484375 C 157.242188 -99.460938 164.695312 -95.710938 170.40625 -89.234375 C 176.125 -82.753906 178.984375 -74.144531 178.984375 -63.40625 L 178.984375 -9.203125 C 178.984375 -5.960938 178.257812 -3.617188 176.8125 -2.171875 C 175.363281 -0.722656 173.019531 0 169.78125 0 L 130.140625 0 C 126.898438 0 124.554688 -0.722656 123.109375 -2.171875 C 121.660156 -3.617188 120.9375 -5.960938 120.9375 -9.203125 L 120.9375 -48.328125 C 120.9375 -52.078125 120.210938 -54.84375 118.765625 -56.625 C 117.316406 -58.414062 114.800781 -59.3125 111.21875 -59.3125 L 75.421875 -59.3125 L 75.421875 -9.203125 C 75.421875 -5.960938 74.695312 -3.617188 73.25 -2.171875 C 71.800781 -0.722656 69.457031 0 66.21875 0 Z M 66.21875 0"/>
      </g>
    </g>
  </g>
  <g fill-opacity="1" fill="#ff8389">
    <g transform="translate(665.708227, 410)">
      <g>
        <path d="M 65.390625 -119.71875 L 65.390625 -91.328125 L 82.03125 -91.328125 C 85.863281 -91.328125 88.445312 -92.328125 89.78125 -94.328125 C 91.113281 -96.328125 91.78125 -98.800781 91.78125 -101.75 L 91.78125 -109.296875 C 91.78125 -112.242188 91.113281 -114.71875 89.78125 -116.71875 C 88.445312 -118.71875 85.863281 -119.71875 82.03125 -119.71875 Z M 57.421875 0 L 23.28125 0 C 20.46875 0 18.429688 -0.625 17.171875 -1.875 C 15.921875 -3.132812 15.296875 -5.171875 15.296875 -7.984375 L 15.296875 -151.640625 C 15.296875 -154.441406 15.921875 -156.46875 17.171875 -157.71875 C 18.429688 -158.976562 20.46875 -159.609375 23.28125 -159.609375 L 97.09375 -159.609375 C 113.644531 -159.609375 125.0625 -156.171875 131.34375 -149.296875 C 137.625 -142.429688 140.765625 -133.53125 140.765625 -122.59375 L 140.765625 -112.390625 C 140.765625 -106.179688 139.84375 -100.894531 138 -96.53125 C 136.15625 -92.175781 132.941406 -89.039062 128.359375 -87.125 C 136.335938 -86.238281 142.800781 -82.984375 147.75 -77.359375 C 152.707031 -71.742188 155.1875 -64.285156 155.1875 -54.984375 L 155.1875 -7.984375 C 155.1875 -5.171875 154.554688 -3.132812 153.296875 -1.875 C 152.035156 -0.625 150.003906 0 147.203125 0 L 112.84375 0 C 110.03125 0 107.992188 -0.625 106.734375 -1.875 C 105.484375 -3.132812 104.859375 -5.171875 104.859375 -7.984375 L 104.859375 -41.90625 C 104.859375 -45.15625 104.226562 -47.554688 102.96875 -49.109375 C 101.71875 -50.660156 99.539062 -51.4375 96.4375 -51.4375 L 65.390625 -51.4375 L 65.390625 -7.984375 C 65.390625 -5.171875 64.757812 -3.132812 63.5 -1.875 C 62.25 -0.625 60.222656 0 57.421875 0 Z M 57.421875 0"/>
      </g>
    </g>
  </g>
  <g fill-opacity="1" fill="#ff8389">
    <g transform="translate(830.425484, 410)">
      <g>
        <path d="M 73.15625 -113.0625 L 62.734375 -79.359375 L 97.546875 -79.359375 L 87.125 -113.0625 C 86.53125 -114.394531 85.898438 -115.351562 85.234375 -115.9375 C 84.566406 -116.53125 83.789062 -116.828125 82.90625 -116.828125 L 77.375 -116.828125 C 76.476562 -116.828125 75.695312 -116.53125 75.03125 -115.9375 C 74.375 -115.351562 73.75 -114.394531 73.15625 -113.0625 Z M 60.515625 -7.984375 C 60.515625 -5.171875 59.882812 -3.132812 58.625 -1.875 C 57.375 -0.625 55.347656 0 52.546875 0 L 19.953125 0 C 17.140625 0 15.101562 -0.625 13.84375 -1.875 C 12.59375 -3.132812 11.96875 -5.171875 11.96875 -7.984375 L 11.96875 -66.5 C 11.96875 -70.9375 12.671875 -76.035156 14.078125 -81.796875 C 15.484375 -87.566406 17.660156 -94.289062 20.609375 -101.96875 L 39.90625 -152.296875 C 40.789062 -154.804688 42.15625 -156.648438 44 -157.828125 C 45.851562 -159.015625 48.253906 -159.609375 51.203125 -159.609375 L 110.84375 -159.609375 C 113.65625 -159.609375 115.984375 -159.015625 117.828125 -157.828125 C 119.671875 -156.648438 121.035156 -154.804688 121.921875 -152.296875 L 141.21875 -101.96875 C 144.175781 -94.289062 146.351562 -87.566406 147.75 -81.796875 C 149.15625 -76.035156 149.859375 -70.9375 149.859375 -66.5 L 149.859375 -7.984375 C 149.859375 -5.171875 149.226562 -3.132812 147.96875 -1.875 C 146.71875 -0.625 144.6875 0 141.875 0 L 108.40625 0 C 105.445312 0 103.265625 -0.625 101.859375 -1.875 C 100.460938 -3.132812 99.765625 -5.171875 99.765625 -7.984375 L 99.765625 -39.015625 L 60.515625 -39.015625 Z M 97.328125 -170.03125 L 66.0625 -165.828125 C 64.582031 -165.671875 63.507812 -165.851562 62.84375 -166.375 C 62.1875 -166.894531 61.78125 -167.894531 61.625 -169.375 L 59.1875 -186.875 C 59.039062 -188.351562 59.265625 -189.460938 59.859375 -190.203125 C 60.453125 -190.941406 61.484375 -191.382812 62.953125 -191.53125 L 82.6875 -194.640625 C 84.164062 -194.785156 85.238281 -195.117188 85.90625 -195.640625 C 86.570312 -196.160156 86.90625 -197.082031 86.90625 -198.40625 C 86.90625 -199.445312 86.5 -200.222656 85.6875 -200.734375 C 84.875 -201.253906 83.875 -201.515625 82.6875 -201.515625 L 54.09375 -201.515625 C 52.613281 -201.515625 51.539062 -201.847656 50.875 -202.515625 C 50.207031 -203.179688 49.875 -204.25 49.875 -205.71875 L 49.875 -221.90625 C 49.875 -223.382812 50.207031 -224.457031 50.875 -225.125 C 51.539062 -225.789062 52.613281 -226.125 54.09375 -226.125 L 91.34375 -226.125 C 98.875 -226.125 104.742188 -224.203125 108.953125 -220.359375 C 113.171875 -216.515625 115.28125 -210.898438 115.28125 -203.515625 L 115.28125 -189.328125 C 115.28125 -182.816406 113.65625 -178.15625 110.40625 -175.34375 C 107.15625 -172.539062 102.796875 -170.769531 97.328125 -170.03125 Z M 97.328125 -170.03125"/>
      </g>
    </g>
  </g>
  <g fill-opacity="1" fill="#ff8389">
    <g transform="translate(992.260746, 410)">
      <g/>
    </g>
  </g>
  <g fill-opacity="1" fill="#ff8389">
    <g transform="translate(1042.141465, 410)">
      <g>
        <path d="M 73.15625 -113.0625 L 62.734375 -79.359375 L 97.546875 -79.359375 L 87.125 -113.0625 C 86.53125 -114.394531 85.898438 -115.351562 85.234375 -115.9375 C 84.566406 -116.53125 83.789062 -116.828125 82.90625 -116.828125 L 77.375 -116.828125 C 76.476562 -116.828125 75.695312 -116.53125 75.03125 -115.9375 C 74.375 -115.351562 73.75 -114.394531 73.15625 -113.0625 Z M 60.515625 -7.984375 C 60.515625 -5.171875 59.882812 -3.132812 58.625 -1.875 C 57.375 -0.625 55.347656 0 52.546875 0 L 19.953125 0 C 17.140625 0 15.101562 -0.625 13.84375 -1.875 C 12.59375 -3.132812 11.96875 -5.171875 11.96875 -7.984375 L 11.96875 -66.5 C 11.96875 -70.9375 12.671875 -76.035156 14.078125 -81.796875 C 15.484375 -87.566406 17.660156 -94.289062 20.609375 -101.96875 L 39.90625 -152.296875 C 40.789062 -154.804688 42.15625 -156.648438 44 -157.828125 C 45.851562 -159.015625 48.253906 -159.609375 51.203125 -159.609375 L 110.84375 -159.609375 C 113.65625 -159.609375 115.984375 -159.015625 117.828125 -157.828125 C 119.671875 -156.648438 121.035156 -154.804688 121.921875 -152.296875 L 141.21875 -101.96875 C 144.175781 -94.289062 146.351562 -87.566406 147.75 -81.796875 C 149.15625 -76.035156 149.859375 -70.9375 149.859375 -66.5 L 149.859375 -7.984375 C 149.859375 -5.171875 149.226562 -3.132812 147.96875 -1.875 C 146.71875 -0.625 144.6875 0 141.875 0 L 108.40625 0 C 105.445312 0 103.265625 -0.625 101.859375 -1.875 C 100.460938 -3.132812 99.765625 -5.171875 99.765625 -7.984375 L 99.765625 -39.015625 L 60.515625 -39.015625 Z M 60.515625 -7.984375"/>
      </g>
    </g>
  </g>
  <g fill-opacity="1" fill="#ff8389">
    <g transform="translate(1203.976704, 410)">
      <g>
        <path d="M 19.734375 0 C 16.921875 0 14.882812 -0.625 13.625 -1.875 C 12.375 -3.132812 11.75 -5.171875 11.75 -7.984375 L 11.75 -34.359375 C 11.75 -37.171875 12.375 -39.203125 13.625 -40.453125 C 14.882812 -41.710938 16.921875 -42.34375 19.734375 -42.34375 L 41.671875 -42.34375 L 41.671875 -116.828125 L 19.734375 -116.828125 C 16.921875 -116.828125 14.882812 -117.453125 13.625 -118.703125 C 12.375 -119.960938 11.75 -122 11.75 -124.8125 L 11.75 -151.640625 C 11.75 -154.441406 12.375 -156.46875 13.625 -157.71875 C 14.882812 -158.976562 16.921875 -159.609375 19.734375 -159.609375 L 114.171875 -159.609375 C 116.972656 -159.609375 119.003906 -158.976562 120.265625 -157.71875 C 121.523438 -156.46875 122.15625 -154.441406 122.15625 -151.640625 L 122.15625 -124.8125 C 122.15625 -122 121.523438 -119.960938 120.265625 -118.703125 C 119.003906 -117.453125 116.972656 -116.828125 114.171875 -116.828125 L 92.671875 -116.828125 L 92.671875 -42.34375 L 114.171875 -42.34375 C 116.972656 -42.34375 119.003906 -41.710938 120.265625 -40.453125 C 121.523438 -39.203125 122.15625 -37.171875 122.15625 -34.359375 L 122.15625 -7.984375 C 122.15625 -5.171875 121.523438 -3.132812 120.265625 -1.875 C 119.003906 -0.625 116.972656 0 114.171875 0 Z M 19.734375 0"/>
      </g>
    </g>
  </g>
  <g fill-opacity="1" fill="#ffc97a">
    <g transform="scale(1, 1.4) translate(483.624661, 400)">
      <g>
        <path d="M 19.421875 0 L 10.640625 0 L 15.65625 -35.390625 L 3.53125 -35.390625 L 4.578125 -43.296875 L 37.609375 -43.296875 L 36.5 -35.390625 L 24.375 -35.390625 Z M 19.421875 0"/>
      </g>
    </g>
  </g>
  <g fill-opacity="1" fill="#ffc97a">
    <g transform="scale(1, 1.4) translate(518.075976, 400)">
      <g>
        <path d="M 10.765625 -35.75 C 9.523438 -35.75 8.484375 -36.179688 7.640625 -37.046875 C 6.796875 -37.921875 6.375 -38.992188 6.375 -40.265625 C 6.375 -41.628906 6.898438 -42.804688 7.953125 -43.796875 C 9.003906 -44.785156 10.1875 -45.28125 11.5 -45.28125 C 12.695312 -45.28125 13.726562 -44.835938 14.59375 -43.953125 C 15.457031 -43.066406 15.890625 -42.023438 15.890625 -40.828125 C 15.890625 -39.421875 15.363281 -38.222656 14.3125 -37.234375 C 13.269531 -36.242188 12.085938 -35.75 10.765625 -35.75 Z M 9.53125 0 L 1.359375 0 L 5.8125 -31.546875 L 13.984375 -31.546875 Z M 9.53125 0"/>
      </g>
    </g>
  </g>
  <g fill-opacity="1" fill="#ffc97a">
    <g transform="scale(1, 1.4) translate(533.415166, 400)">
      <g>
        <path d="M 35.875 -48.625 L 38.109375 -40.765625 L 32.78125 -40.765625 L 28.578125 -48.625 Z M 23.875 -35.875 L 22.015625 -41.328125 L 18.6875 -35.875 L 11.015625 -35.875 L 17.9375 -44.96875 L 26.53125 -44.96875 L 30.8125 -35.875 Z M 19.296875 -31.859375 C 22.222656 -31.859375 24.832031 -31.1875 27.125 -29.84375 C 29.414062 -28.507812 31.207031 -26.726562 32.5 -24.5 C 33.800781 -22.269531 34.453125 -19.816406 34.453125 -17.140625 C 34.453125 -16.515625 34.398438 -15.832031 34.296875 -15.09375 C 34.191406 -14.351562 34.0625 -13.710938 33.90625 -13.171875 L 10.078125 -13.171875 C 10.410156 -11.191406 11.285156 -9.625 12.703125 -8.46875 C 14.128906 -7.320312 15.8125 -6.75 17.75 -6.75 C 19.195312 -6.75 20.5 -7.046875 21.65625 -7.640625 C 22.8125 -8.234375 23.65625 -9.023438 24.1875 -10.015625 L 33.09375 -10.015625 C 31.570312 -6.640625 29.425781 -4.019531 26.65625 -2.15625 C 23.894531 -0.300781 20.765625 0.625 17.265625 0.625 C 14.328125 0.625 11.703125 -0.0546875 9.390625 -1.421875 C 7.085938 -2.785156 5.273438 -4.617188 3.953125 -6.921875 C 2.640625 -9.234375 1.984375 -11.8125 1.984375 -14.65625 C 1.984375 -16.269531 2.300781 -18.054688 2.9375 -20.015625 C 3.570312 -21.972656 4.59375 -23.847656 6 -25.640625 C 7.40625 -27.429688 9.195312 -28.914062 11.375 -30.09375 C 13.5625 -31.269531 16.203125 -31.859375 19.296875 -31.859375 Z M 10.640625 -18.5 L 26.40625 -18.5 C 26.164062 -20.269531 25.332031 -21.710938 23.90625 -22.828125 C 22.488281 -23.941406 20.804688 -24.5 18.859375 -24.5 C 16.804688 -24.5 15.078125 -23.910156 13.671875 -22.734375 C 12.265625 -21.554688 11.253906 -20.144531 10.640625 -18.5 Z M 10.640625 -18.5"/>
      </g>
    </g>
  </g>
  <g fill-opacity="1" fill="#ffc97a">
    <g transform="scale(1, 1.4) translate(569.783882, 400)">
      <g>
        <path d="M 9.59375 0 L 1.421875 0 L 5.8125 -31.546875 L 13.984375 -31.546875 L 13.421875 -27.46875 C 15.773438 -30.394531 18.929688 -31.859375 22.890625 -31.859375 C 26.066406 -31.859375 28.59375 -31.15625 30.46875 -29.75 C 32.34375 -28.351562 33.617188 -26.40625 34.296875 -23.90625 C 34.984375 -21.414062 35.078125 -18.476562 34.578125 -15.09375 L 32.53125 0 L 24.25 0 L 26.171875 -13.671875 C 26.453125 -15.609375 26.414062 -17.347656 26.0625 -18.890625 C 25.71875 -20.441406 25.050781 -21.671875 24.0625 -22.578125 C 23.070312 -23.484375 21.691406 -23.9375 19.921875 -23.9375 C 17.648438 -23.9375 15.8125 -23.140625 14.40625 -21.546875 C 13.007812 -19.960938 12.101562 -17.707031 11.6875 -14.78125 Z M 9.59375 0"/>
      </g>
    </g>
  </g>
  <g fill-opacity="1" fill="#ffc97a">
    <g transform="scale(1, 1.4) translate(607.760743, 400)">
      <g/>
    </g>
  </g>
  <g fill-opacity="1" fill="#ffc97a">
    <g transform="scale(1, 1.4) translate(624.955479, 400)">
      <g>
        <path d="M 9.59375 0 L 1.421875 0 L 5.8125 -31.546875 L 13.984375 -31.546875 L 13.484375 -27.65625 C 14.554688 -28.925781 15.820312 -29.941406 17.28125 -30.703125 C 18.75 -31.472656 20.304688 -31.859375 21.953125 -31.859375 C 23.066406 -31.859375 24.039062 -31.773438 24.875 -31.609375 L 23.6875 -23.328125 C 23.03125 -23.441406 22.484375 -23.519531 22.046875 -23.5625 C 21.617188 -23.601562 21.113281 -23.625 20.53125 -23.625 C 18.507812 -23.625 16.644531 -22.960938 14.9375 -21.640625 C 13.226562 -20.328125 12.207031 -18.453125 11.875 -16.015625 Z M 9.59375 0"/>
      </g>
    </g>
  </g>
  <g fill-opacity="1" fill="#ffc97a">
    <g transform="scale(1, 1.4) translate(648.582778, 400)">
      <g>
        <path d="M 16.140625 -36.125 L 11.5 -36.125 C 11.957031 -39.175781 12.703125 -41.398438 13.734375 -42.796875 C 14.765625 -44.203125 16.289062 -44.90625 18.3125 -44.90625 C 19.425781 -44.90625 20.34375 -44.65625 21.0625 -44.15625 C 21.78125 -43.664062 22.4375 -43.171875 23.03125 -42.671875 C 23.632812 -42.179688 24.226562 -41.9375 24.8125 -41.9375 C 25.957031 -41.9375 26.78125 -42.925781 27.28125 -44.90625 L 31.859375 -44.90625 C 31.441406 -42.019531 30.71875 -39.832031 29.6875 -38.34375 C 28.65625 -36.863281 27.085938 -36.125 24.984375 -36.125 C 23.921875 -36.125 23.015625 -36.367188 22.265625 -36.859375 C 21.523438 -37.359375 20.851562 -37.851562 20.25 -38.34375 C 19.65625 -38.84375 19.03125 -39.09375 18.375 -39.09375 C 17.175781 -39.09375 16.429688 -38.101562 16.140625 -36.125 Z M 17.140625 0.625 C 14.210938 0.625 11.613281 -0.0546875 9.34375 -1.421875 C 7.070312 -2.785156 5.285156 -4.640625 3.984375 -6.984375 C 2.691406 -9.335938 2.046875 -12 2.046875 -14.96875 C 2.046875 -16.613281 2.363281 -18.40625 3 -20.34375 C 3.632812 -22.289062 4.632812 -24.140625 6 -25.890625 C 7.363281 -27.640625 9.125 -29.070312 11.28125 -30.1875 C 13.445312 -31.300781 16.054688 -31.859375 19.109375 -31.859375 C 22.035156 -31.859375 24.632812 -31.175781 26.90625 -29.8125 C 29.175781 -28.457031 30.957031 -26.601562 32.25 -24.25 C 33.550781 -21.894531 34.203125 -19.234375 34.203125 -16.265625 C 34.203125 -14.617188 33.882812 -12.816406 33.25 -10.859375 C 32.613281 -8.898438 31.613281 -7.050781 30.25 -5.3125 C 28.882812 -3.582031 27.117188 -2.160156 24.953125 -1.046875 C 22.796875 0.0664062 20.191406 0.625 17.140625 0.625 Z M 17.5 -7.296875 C 19.15625 -7.296875 20.617188 -7.6875 21.890625 -8.46875 C 23.171875 -9.257812 24.179688 -10.320312 24.921875 -11.65625 C 25.671875 -13 26.046875 -14.535156 26.046875 -16.265625 C 26.046875 -18.410156 25.351562 -20.222656 23.96875 -21.703125 C 22.582031 -23.191406 20.820312 -23.9375 18.6875 -23.9375 C 16.25 -23.9375 14.222656 -23.085938 12.609375 -21.390625 C 11.003906 -19.703125 10.203125 -17.5625 10.203125 -14.96875 C 10.203125 -12.820312 10.882812 -11.003906 12.25 -9.515625 C 13.613281 -8.035156 15.363281 -7.296875 17.5 -7.296875 Z M 17.5 -7.296875"/>
      </g>
    </g>
  </g>
  <g fill-opacity="1" fill="#ffc97a">
    <g transform="scale(1, 1.4) translate(684.827805, 400)">
      <g>
        <path d="M 4.578125 10.515625 L -2.65625 10.515625 L 1.734375 -6.25 L 11.015625 -6.25 Z M 4.578125 10.515625"/>
      </g>
    </g>
  </g>
  <g fill-opacity="1" fill="#ff8389">
    <g transform="scale(1, 1.4) translate(753.189699, 400)">
      <g>
        <path d="M 20.71875 0.625 C 18.570312 0.625 16.59375 0.210938 14.78125 -0.609375 C 12.96875 -1.441406 11.421875 -2.554688 10.140625 -3.953125 L 9.59375 0 L 1.359375 0 L 8.34375 -49.484375 L 16.578125 -49.484375 L 13.671875 -28.578125 C 14.910156 -29.609375 16.332031 -30.410156 17.9375 -30.984375 C 19.550781 -31.566406 21.203125 -31.859375 22.890625 -31.859375 C 25.898438 -31.859375 28.476562 -31.1875 30.625 -29.84375 C 32.769531 -28.507812 34.414062 -26.695312 35.5625 -24.40625 C 36.71875 -22.113281 37.296875 -19.523438 37.296875 -16.640625 C 37.296875 -14.535156 36.9375 -12.460938 36.21875 -10.421875 C 35.5 -8.378906 34.4375 -6.519531 33.03125 -4.84375 C 31.625 -3.175781 29.890625 -1.847656 27.828125 -0.859375 C 25.773438 0.128906 23.40625 0.625 20.71875 0.625 Z M 19.921875 -6.5 C 21.691406 -6.5 23.253906 -6.960938 24.609375 -7.890625 C 25.972656 -8.816406 27.054688 -10.03125 27.859375 -11.53125 C 28.671875 -13.039062 29.078125 -14.679688 29.078125 -16.453125 C 29.078125 -18.804688 28.351562 -20.773438 26.90625 -22.359375 C 25.46875 -23.953125 23.550781 -24.75 21.15625 -24.75 C 19.46875 -24.75 17.910156 -24.289062 16.484375 -23.375 C 15.054688 -22.46875 13.921875 -21.257812 13.078125 -19.75 C 12.234375 -18.25 11.8125 -16.570312 11.8125 -14.71875 C 11.8125 -12.414062 12.5625 -10.46875 14.0625 -8.875 C 15.570312 -7.289062 17.523438 -6.5 19.921875 -6.5 Z M 19.921875 -6.5"/>
      </g>
    </g>
  </g>
  <g fill-opacity="1" fill="#ff8389">
    <g transform="scale(1, 1.4) translate(792.465443, 400)">
      <g>
        <path d="M 16.328125 0.625 C 13.359375 0.625 10.800781 -0.046875 8.65625 -1.390625 C 6.507812 -2.734375 4.859375 -4.554688 3.703125 -6.859375 C 2.554688 -9.171875 1.984375 -11.75 1.984375 -14.59375 C 1.984375 -16.695312 2.34375 -18.78125 3.0625 -20.84375 C 3.78125 -22.90625 4.847656 -24.757812 6.265625 -26.40625 C 7.691406 -28.0625 9.4375 -29.382812 11.5 -30.375 C 13.5625 -31.363281 15.914062 -31.859375 18.5625 -31.859375 C 20.75 -31.859375 22.726562 -31.453125 24.5 -30.640625 C 26.269531 -29.835938 27.796875 -28.738281 29.078125 -27.34375 L 29.625 -31.546875 L 37.859375 -31.546875 L 33.46875 0 L 25.234375 0 L 25.671875 -2.96875 C 24.390625 -1.726562 22.941406 -0.816406 21.328125 -0.234375 C 19.722656 0.335938 18.054688 0.625 16.328125 0.625 Z M 18.0625 -6.5 C 19.789062 -6.5 21.363281 -6.953125 22.78125 -7.859375 C 24.207031 -8.765625 25.332031 -9.96875 26.15625 -11.46875 C 26.988281 -12.976562 27.40625 -14.617188 27.40625 -16.390625 C 27.40625 -18.742188 26.671875 -20.722656 25.203125 -22.328125 C 23.742188 -23.941406 21.816406 -24.75 19.421875 -24.75 C 17.648438 -24.75 16.0625 -24.289062 14.65625 -23.375 C 13.257812 -22.46875 12.15625 -21.25 11.34375 -19.71875 C 10.539062 -18.195312 10.140625 -16.53125 10.140625 -14.71875 C 10.140625 -12.414062 10.867188 -10.46875 12.328125 -8.875 C 13.796875 -7.289062 15.707031 -6.5 18.0625 -6.5 Z M 15.59375 13.109375 C 14.351562 13.109375 13.3125 12.675781 12.46875 11.8125 C 11.625 10.945312 11.203125 9.894531 11.203125 8.65625 C 11.203125 7.257812 11.722656 6.066406 12.765625 5.078125 C 13.816406 4.085938 15.003906 3.59375 16.328125 3.59375 C 17.523438 3.59375 18.554688 4.035156 19.421875 4.921875 C 20.285156 5.804688 20.71875 6.847656 20.71875 8.046875 C 20.71875 9.484375 20.191406 10.6875 19.140625 11.65625 C 18.085938 12.625 16.90625 13.109375 15.59375 13.109375 Z M 15.59375 13.109375"/>
      </g>
    </g>
  </g>
  <g fill-opacity="1" fill="#ff8389">
    <g transform="scale(1, 1.4) translate(831.679331, 400)">
      <g>
        <path d="M 9.59375 0 L 1.421875 0 L 5.8125 -31.546875 L 13.984375 -31.546875 L 13.421875 -27.46875 C 15.773438 -30.394531 18.929688 -31.859375 22.890625 -31.859375 C 26.066406 -31.859375 28.59375 -31.15625 30.46875 -29.75 C 32.34375 -28.351562 33.617188 -26.40625 34.296875 -23.90625 C 34.984375 -21.414062 35.078125 -18.476562 34.578125 -15.09375 L 32.53125 0 L 24.25 0 L 26.171875 -13.671875 C 26.453125 -15.609375 26.414062 -17.347656 26.0625 -18.890625 C 25.71875 -20.441406 25.050781 -21.671875 24.0625 -22.578125 C 23.070312 -23.484375 21.691406 -23.9375 19.921875 -23.9375 C 17.648438 -23.9375 15.8125 -23.140625 14.40625 -21.546875 C 13.007812 -19.960938 12.101562 -17.707031 11.6875 -14.78125 Z M 9.59375 0"/>
      </g>
    </g>
  </g>
  <g fill-opacity="1" fill="#ff8389">
    <g transform="scale(1, 1.4) translate(869.656192, 400)">
      <g/>
    </g>
  </g>
  <g fill-opacity="1" fill="#ff8389">
    <g transform="scale(1, 1.4) translate(886.850928, 400)">
      <g>
        <path d="M 17.015625 0.625 C 14.128906 0.625 11.550781 -0.0546875 9.28125 -1.421875 C 7.007812 -2.785156 5.234375 -4.640625 3.953125 -6.984375 C 2.679688 -9.335938 2.046875 -12 2.046875 -14.96875 C 2.046875 -16.613281 2.363281 -18.40625 3 -20.34375 C 3.632812 -22.289062 4.632812 -24.140625 6 -25.890625 C 7.363281 -27.640625 9.125 -29.070312 11.28125 -30.1875 C 13.445312 -31.300781 16.054688 -31.859375 19.109375 -31.859375 C 21.585938 -31.859375 23.835938 -31.351562 25.859375 -30.34375 C 27.878906 -29.332031 29.566406 -27.9375 30.921875 -26.15625 C 32.285156 -24.382812 33.195312 -22.367188 33.65625 -20.109375 L 24.921875 -20.109375 C 24.390625 -21.421875 23.546875 -22.382812 22.390625 -23 C 21.234375 -23.625 19.976562 -23.9375 18.625 -23.9375 C 16.226562 -23.9375 14.222656 -23.085938 12.609375 -21.390625 C 11.003906 -19.703125 10.203125 -17.5625 10.203125 -14.96875 C 10.203125 -12.820312 10.875 -11.003906 12.21875 -9.515625 C 13.5625 -8.035156 15.300781 -7.296875 17.4375 -7.296875 C 18.757812 -7.296875 20.03125 -7.613281 21.25 -8.25 C 22.46875 -8.894531 23.570312 -9.914062 24.5625 -11.3125 L 33.09375 -11.3125 C 32.269531 -8.882812 31.03125 -6.769531 29.375 -4.96875 C 27.726562 -3.175781 25.832031 -1.796875 23.6875 -0.828125 C 21.539062 0.140625 19.316406 0.625 17.015625 0.625 Z M 17.015625 0.625"/>
      </g>
    </g>
  </g>
  <g fill-opacity="1" fill="#ff8389">
    <g transform="scale(1, 1.4) translate(921.673352, 400)">
      <g>
        <path d="M 23.9375 -35.875 L 18.5625 -35.875 L 13.859375 -44.96875 L 21.15625 -44.96875 Z M 17.140625 0.625 C 14.210938 0.625 11.613281 -0.0546875 9.34375 -1.421875 C 7.070312 -2.785156 5.285156 -4.640625 3.984375 -6.984375 C 2.691406 -9.335938 2.046875 -12 2.046875 -14.96875 C 2.046875 -16.613281 2.363281 -18.40625 3 -20.34375 C 3.632812 -22.289062 4.632812 -24.140625 6 -25.890625 C 7.363281 -27.640625 9.125 -29.070312 11.28125 -30.1875 C 13.445312 -31.300781 16.054688 -31.859375 19.109375 -31.859375 C 22.035156 -31.859375 24.632812 -31.175781 26.90625 -29.8125 C 29.175781 -28.457031 30.957031 -26.601562 32.25 -24.25 C 33.550781 -21.894531 34.203125 -19.234375 34.203125 -16.265625 C 34.203125 -14.617188 33.882812 -12.816406 33.25 -10.859375 C 32.613281 -8.898438 31.613281 -7.050781 30.25 -5.3125 C 28.882812 -3.582031 27.117188 -2.160156 24.953125 -1.046875 C 22.796875 0.0664062 20.191406 0.625 17.140625 0.625 Z M 17.5 -7.296875 C 19.15625 -7.296875 20.617188 -7.6875 21.890625 -8.46875 C 23.171875 -9.257812 24.179688 -10.320312 24.921875 -11.65625 C 25.671875 -13 26.046875 -14.535156 26.046875 -16.265625 C 26.046875 -18.410156 25.351562 -20.222656 23.96875 -21.703125 C 22.582031 -23.191406 20.820312 -23.9375 18.6875 -23.9375 C 16.25 -23.9375 14.222656 -23.085938 12.609375 -21.390625 C 11.003906 -19.703125 10.203125 -17.5625 10.203125 -14.96875 C 10.203125 -12.820312 10.882812 -11.003906 12.25 -9.515625 C 13.613281 -8.035156 15.363281 -7.296875 17.5 -7.296875 Z M 17.5 -7.296875"/>
      </g>
    </g>
  </g>
  <g fill-opacity="1" fill="#ff8389">
    <g transform="scale(1, 1.4) translate(957.918356, 400)">
      <g>
        <path d="M 9.59375 0 L 1.421875 0 L 5.8125 -31.546875 L 13.984375 -31.546875 L 13.421875 -27.46875 C 15.773438 -30.394531 18.929688 -31.859375 22.890625 -31.859375 C 26.066406 -31.859375 28.59375 -31.15625 30.46875 -29.75 C 32.34375 -28.351562 33.617188 -26.40625 34.296875 -23.90625 C 34.984375 -21.414062 35.078125 -18.476562 34.578125 -15.09375 L 32.53125 0 L 24.25 0 L 26.171875 -13.671875 C 26.453125 -15.609375 26.414062 -17.347656 26.0625 -18.890625 C 25.71875 -20.441406 25.050781 -21.671875 24.0625 -22.578125 C 23.070312 -23.484375 21.691406 -23.9375 19.921875 -23.9375 C 17.648438 -23.9375 15.8125 -23.140625 14.40625 -21.546875 C 13.007812 -19.960938 12.101562 -17.707031 11.6875 -14.78125 Z M 9.59375 0"/>
      </g>
    </g>
  </g>
  <g fill-opacity="1" fill="#ff8389">
    <g transform="scale(1, 1.4) translate(995.895207, 400)">
      <g>
        <path d="M 10.453125 -13.359375 L 2.78125 -13.359375 L 6.4375 -43.296875 L 15.21875 -43.296875 Z M 4.890625 0.5625 C 3.566406 0.5625 2.484375 0.140625 1.640625 -0.703125 C 0.796875 -1.554688 0.375 -2.617188 0.375 -3.890625 C 0.375 -5.253906 0.898438 -6.429688 1.953125 -7.421875 C 3.003906 -8.410156 4.226562 -8.90625 5.625 -8.90625 C 6.90625 -8.90625 7.96875 -8.472656 8.8125 -7.609375 C 9.65625 -6.742188 10.078125 -5.710938 10.078125 -4.515625 C 10.078125 -3.066406 9.539062 -1.859375 8.46875 -0.890625 C 7.394531 0.078125 6.203125 0.5625 4.890625 0.5625 Z M 4.890625 0.5625"/>
      </g>
    </g>
  </g>
</svg>